Saw.2004BRrip.720p.Dual-Audio.Eng-Hindi~MSBHATTI

IMDB:- http://www.imdb.com/title/tt0387564/

PLOT:- With a dead body laying between them, two men wake up in the secure lair of a serial killer who's been nicknamed "Jigsaw". The men must follow various rules and objectives if they wish to survive and win the deadly game set for them.

Director: James Wan
Writers: Leigh Whannell, James Wan (story)
Stars: Cary Elwes, Leigh Whannell and Danny Glover 

INFO:-
General
Complete name                    : Saw.2004BRrip.720p.Dual-Audio.Eng-Hindi~MSBHATTI
Format                           : Matroska
File size                        : 1.91 GiB
Duration                         : 1h 47mn
Overall bit rate                 : 2 541 Kbps
Encoded date                     : UTC 2011-12-23 08:38:03
Writing application              : mkvmerge v3.3.0 ('Language') built on Mar 24 2010 14:59:24
Writing library                  : libebml v0.8.0 + libmatroska v0.9.0

Video
ID                               : 1
Format                           : AVC
Format/Info                      : Advanced Video Codec
Format profile                   : High@L3.1
Format settings, CABAC           : Yes
Format settings, ReFrames        : 5 frames
Codec ID                         : V_MPEG4/ISO/AVC
Duration                         : 1h 47mn
Bit rate                         : 1 851 Kbps
Nominal bit rate                 : 2 012 Kbps
Width                            : 1 280 pixels
Height                           : 688 pixels
Display aspect ratio             : 1.860
Frame rate                       : 23.976 fps
Color space                      : YUV
Chroma subsampling               : 4:2:0
Bit depth                        : 8 bits
Scan type                        : Progressive
Bits/(Pixel*Frame)               : 0.088
Stream size                      : 1.39 GiB (73%)
Writing library                  : x264 core 105 r1724 b02df7b
Encoding settings                : cabac=1 / ref=5 / deblock=1:-1:-1 / analyse=0x3:0x113 / me=umh / subme=8 / psy=1 / psy_rd=1.00:0.15 / mixed_ref=1 / me_range=16 / chroma_me=1 / trellis=1 / 8x8dct=1 / cqm=0 / deadzone=21,11 / fast_pskip=1 / chroma_qp_offset=-3 / threads=3 / sliced_threads=0 / nr=0 / decimate=1 / interlaced=0 / constrained_intra=0 / bframes=3 / b_pyramid=2 / b_adapt=2 / b_bias=0 / direct=3 / weightb=1 / open_gop=0 / weightp=2 / keyint=250 / keyint_min=23 / scenecut=40 / intra_refresh=0 / rc_lookahead=50 / rc=2pass / mbtree=1 / bitrate=2012 / ratetol=1.0 / qcomp=0.60 / qpmin=10 / qpmax=51 / qpstep=4 / cplxblur=20.0 / qblur=0.5 / ip_ratio=1.40 / aq=1:1.00
Language                         : English

Audio #1
ID                               : 2
Format                           : AC-3
Format/Info                      : Audio Coding 3
Mode extension                   : CM (complete main)
Codec ID                         : A_AC3
Duration                         : 1h 47mn
Bit rate mode                    : Constant
Bit rate                         : 384 Kbps
Channel(s)                       : 6 channels
Channel positions                : Front: L C R, Side: L R, LFE
Sampling rate                    : 48.0 KHz
Bit depth                        : 16 bits
Compression mode                 : Lossy
Stream size                      : 296 MiB (15%)
Title                            : MSBHATTI
Language                         : English

Audio #2
ID                               : 3
Format                           : MPEG Audio
Format version                   : Version 1
Format profile                   : Layer 3
Codec ID                         : A_MPEG/L3
Codec ID/Hint                    : MP3
Duration                         : 1h 47mn
Bit rate mode                    : Constant
Bit rate                         : 256 Kbps
Channel(s)                       : 2 channels
Sampling rate                    : 48.0 KHz
Compression mode                 : Lossy
Stream size                      : 197 MiB (10%)
Title                            : MSBHATTI
Language                         : Hindi

SCREENSHOTS:-
[IMG]http://i.imgur.com/a5jJv.jpg[/IMG]
[IMG]http://i.imgur.com/zIBLU.jpg[/IMG]
[IMG]http://i.imgur.com/GSR85.jpg[/IMG]
[IMG]http://i.imgur.com/6t3Nm.jpg[/IMG]

NOTE:- IF U LIKE MY WORK SO COMMENT PLZ

REGARDS

MSBHATTI